<svg width="16" height="20" viewBox="0 0 16 20" fill="none" xmlns="http://www.w3.org/2000/svg">
<path d="M5.99995 12.6502V7.35024L11 10.0002L5.99995 12.6502ZM13.77 8.32024C13 8.00024 12.57 7.82023 12.57 7.82023L14 7.06024C15.84 6.10024 16.53 3.83024 15.56 2.00024C14.59 0.170235 12.32 -0.529765 10.49 0.440235L1.99995 4.94024C0.709953 5.62023 -0.070047 6.98024 -4.69666e-05 8.43024C0.069953 9.85024 0.929953 11.1002 2.21995 11.6802C2.24995 11.6902 3.41995 12.1802 3.41995 12.1802L1.99995 12.9302C0.169953 13.9002 -0.530047 16.1702 0.439953 18.0002C1.40995 19.8302 3.67995 20.5302 5.50995 19.5602L14.01 15.0602C15.3 14.3802 16.07 13.0202 16 11.5702C15.93 10.1502 15.06 8.89023 13.77 8.32024ZM13.54 14.1802L5.03995 18.6802C3.69995 19.3902 2.02995 18.8802 1.31995 17.5402C0.609953 16.2002 1.11995 14.5302 2.45995 13.8202L4.49995 12.7402V11.5302L3.80995 11.2502L2.69995 10.7902C1.70995 10.3802 1.04995 9.44024 0.999953 8.38024C0.949953 7.32024 1.51995 6.32024 2.45995 5.82024L10.96 1.32024C12.3 0.610235 13.97 1.12024 14.68 2.46024C15.39 3.80024 14.88 5.47024 13.54 6.18024L11.5 7.26024V8.47024L13.3 9.21024C14.29 9.62024 14.95 10.5602 15 11.6202C15.05 12.6802 14.48 13.6802 13.54 14.1802Z" fill="#030303"/>
</svg>
