<svg width="16" height="20" viewBox="0 0 16 20" fill="none" xmlns="http://www.w3.org/2000/svg">
<path d="M10.7199 15.84C10.3999 16.11 9.88995 16.37 9.48995 16.5C8.14995 16.83 7.07995 16.16 6.86995 16.04C6.65995 15.93 6.08995 15.66 6.08995 15.66C6.08995 15.66 6.43995 15.55 6.49995 15.53C7.83995 14.99 8.38995 14.29 8.58995 13.42C8.78995 12.58 8.42995 11.86 8.27995 11.03C8.15995 10.34 8.16995 9.75 8.39995 9.13C8.41995 9.08 8.51995 8.7 8.51995 8.7C8.51995 8.7 8.62995 9.05 8.64995 9.11C9.35995 10.62 11.3699 11.29 11.7199 12.95C11.7499 13.1 11.7699 13.25 11.7699 13.41C11.7999 14.3 11.3999 15.26 10.7199 15.84ZM8.39995 2.34C8.27995 2.42 8.17995 2.49 8.08995 2.56C5.09995 4.87 5.17995 8.49 5.77995 11.11L5.78995 11.14L5.79995 11.17C5.85995 11.52 5.74995 11.87 5.51995 12.13C5.27995 12.39 4.93995 12.54 4.56995 12.54C4.12995 12.54 3.71995 12.34 3.34995 11.94C2.67995 11.21 2.17995 10.37 1.84995 9.48C1.48995 10.25 1.09995 11.46 1.17995 12.67C1.21995 13.18 1.29995 13.67 1.42995 14.1C1.60995 14.7 1.85995 15.26 2.17995 15.75C3.22995 17.41 5.05995 18.57 6.95995 18.8C7.37995 18.85 7.80995 18.88 8.21995 18.88C9.55995 18.88 11.4699 18.61 12.9599 17.31C14.7299 15.75 15.3099 13.32 14.3999 11.25C14.3599 11.15 14.3399 11.11 14.3099 11.06L14.2699 10.98C14.0599 10.56 13.7999 10.17 13.5199 9.84C13.2799 9.54 13.0399 9.28 12.7299 9.01C12.4299 8.74 12.0899 8.5 11.7299 8.24C11.2699 7.91 10.7999 7.57 10.3499 7.15C8.97995 5.83 8.29995 4.11 8.39995 2.34ZM10.4099 0C10.4099 0 10.2099 0.2 9.84995 0.99C9.18995 2.91 9.69995 4.94 11.1899 6.38C11.9199 7.07 12.7999 7.55 13.5499 8.22C13.8699 8.51 14.1699 8.81 14.4399 9.15C14.7999 9.57 15.0999 10.04 15.3499 10.53C15.3999 10.63 15.4499 10.73 15.4899 10.83C16.6099 13.38 15.8499 16.3 13.7599 18.14C12.2299 19.47 10.2199 20 8.21995 20C7.74995 20 7.26995 19.97 6.80995 19.91C4.51995 19.63 2.38995 18.25 1.17995 16.34C0.789947 15.74 0.499947 15.08 0.299947 14.41C0.139947 13.87 0.0499472 13.31 0.0099472 12.74C-0.110053 10.86 0.679947 9.11 1.08995 8.43C1.49995 7.74 2.63995 6.25 2.63995 6.25C2.63995 6.25 2.63995 6.28 2.62995 6.34C2.40995 8.11 2.99995 9.88 4.21995 11.22C4.36995 11.39 4.48995 11.44 4.55995 11.44C4.61995 11.44 4.64995 11.4 4.63995 11.35C3.78995 7.59 4.36995 4 7.34995 1.7C7.93995 1.24 8.85995 0.76 9.32995 0.52C9.79995 0.28 10.4099 0 10.4099 0Z" fill="#030303"/>
</svg>
